<?xml version="1.0" encoding="iso-8859-1"?>
<svg version="1.1" id="Capa_1" xmlns="http://www.w3.org/2000/svg" xmlns:xlink="http://www.w3.org/1999/xlink" x="0px" y="0px"
	 viewBox="0 0 362.027 362.027" style="enable-background:new 0 0 362.027 362.027;" xml:space="preserve" fill="#fff">
<g>
	<g>
		<path d="M181.014,68.957c-56.864,0-103.127,46.263-103.127,103.127c0,19.826,5.642,39.084,16.316,55.69
			c7.799,12.132,17.992,22.433,29.904,30.321c-4.212,4.332-6.812,10.236-6.812,16.74c0,6.402,2.521,12.223,6.616,16.535
			c-4.095,4.313-6.616,10.133-6.616,16.535c0,13.253,10.782,24.035,24.035,24.035h3.155v3.228c0,15.061,15.644,26.857,35.615,26.857
			h1.828c19.971,0,35.614-11.797,35.614-26.857v-3.228h3.155c13.254,0,24.035-10.782,24.035-24.035
			c0-6.402-2.521-12.223-6.615-16.535c4.095-4.313,6.615-10.133,6.615-16.535c0-6.51-2.606-12.42-6.823-16.752
			c11.913-7.888,22.116-18.176,29.915-30.31c10.674-16.606,16.316-35.864,16.316-55.69
			C284.141,115.22,237.878,68.957,181.014,68.957z M202.542,335.17c0,5.608-8.466,11.857-20.614,11.857H180.1
			c-12.148,0-20.615-6.249-20.615-11.857v-3.228h43.058V335.17z M220.697,316.941H141.33c-4.982,0-9.035-4.053-9.035-9.035
			c0-4.982,4.053-9.035,9.035-9.035h79.368c4.982,0,9.035,4.053,9.035,9.035C229.733,312.889,225.68,316.941,220.697,316.941z
			 M220.697,283.871H141.33c-4.982,0-9.035-4.053-9.035-9.035c0-4.983,4.053-9.035,9.035-9.035h79.368
			c4.982,0,9.035,4.053,9.035,9.035C229.733,279.818,225.68,283.871,220.697,283.871z M163.647,197.205h34.734
			c-7.839,18.796-12.217,42.332-14,53.596h-6.734C175.862,239.525,171.481,215.992,163.647,197.205z M220.649,250.801H199.59
			c2.306-13.774,7.814-41.184,17.273-57.299c1.361-2.319,1.377-5.189,0.041-7.523c-1.336-2.334-3.82-3.773-6.509-3.773h-58.764
			c-2.689,0-5.172,1.439-6.508,3.773c-1.337,2.333-1.321,5.204,0.04,7.522c9.444,16.091,14.961,43.519,17.27,57.3h-21.055
			c-29.513-14.898-48.492-45.588-48.492-78.717c0-48.594,39.534-88.127,88.127-88.127c48.594,0,88.127,39.533,88.127,88.127
			C269.141,205.212,250.162,235.902,220.649,250.801z"/>
		
	</g>
</g>
<g>
</g>
<g>
</g>
<g>
</g>
<g>
</g>
<g>
</g>
<g>
</g>
<g>
</g>
<g>
</g>
<g>
</g>
<g>
</g>
<g>
</g>
<g>
</g>
<g>
</g>
<g>
</g>
<g>
</g>
</svg>
